<svg xmlns="http://www.w3.org/2000/svg" viewBox="0 0 191.99 476.12"><defs><style>.cls-1{fill:#bcbcbc;}.cls-2{fill:#c9c6c5;}.cls-3{fill:#7a685e;}.cls-4{fill:#332727;}.cls-5{fill:#e0d9d7;}.cls-6{fill:#adadad;}.cls-7{fill:#cccfd8;}.cls-8{fill:#9c9fa4;}.cls-9{fill:#706f75;}.cls-10{fill:#1a1b1f;}</style></defs><g id="Layer_2" data-name="Layer 2"><g id="Layer_1-2" data-name="Layer 1"><polygon class="cls-1" points="176.16 435.11 17.65 435.11 0 476.12 192 476.12 176.16 435.11"/><polygon class="cls-2" points="168.02 437.07 25.61 437.07 9.75 471.89 182.24 471.89 168.02 437.07"/><rect class="cls-3" x="25.08" y="406.26" width="143.3" height="60.91"/><path class="cls-2" d="M52.65,419.57v-1.19h.48v-1.05H48.89v1.05h.49v1.19c-6.86.55-12.18,4.52-12.18,9.34v38.26H64.82V428.91C64.82,424.09,59.5,420.12,52.65,419.57Z"/><path class="cls-2" d="M98.36,419.57v-1.19h.55v-1.05H94.16v1.05h.54v1.19c-7.68.55-13.65,4.52-13.65,9.34v38.26h31V428.91C112,424.09,106.05,420.12,98.36,419.57Z"/><path class="cls-2" d="M144.09,419.57v-1.19h.48v-1.05h-4.24v1.05h.49v1.19c-6.86.55-12.18,4.52-12.18,9.34v38.26h27.62V428.91C156.26,424.09,150.94,420.12,144.09,419.57Z"/><path class="cls-4" d="M51,422.24c-6,0-10.94,4-10.94,8.88v36.05H62V431.12C62,426.22,57.05,422.24,51,422.24Z"/><path class="cls-4" d="M142.45,422.24c-6,0-10.94,4-10.94,8.88v36.05h21.88V431.12C153.39,426.22,148.49,422.24,142.45,422.24Z"/><path class="cls-4" d="M96.73,422.24c-6.83,0-12.37,4-12.37,8.88v36.05H109.1V431.12C109.1,426.22,103.56,422.24,96.73,422.24Z"/><polygon class="cls-5" points="32.62 415.85 32.62 413.31 23.68 413.31 23.68 415.85 24.88 415.85 24.88 465.9 23.68 465.9 23.68 468.44 32.62 468.44 32.62 465.9 31.42 465.9 31.42 415.85 32.62 415.85"/><polygon class="cls-5" points="78.34 415.85 78.34 413.31 69.4 413.31 69.4 415.85 70.6 415.85 70.6 465.9 69.4 465.9 69.4 468.44 78.34 468.44 78.34 465.9 77.14 465.9 77.14 415.85 78.34 415.85"/><polygon class="cls-5" points="124.06 415.29 124.06 412.76 115.12 412.76 115.12 415.29 116.32 415.29 116.32 465.35 115.12 465.35 115.12 467.88 124.06 467.88 124.06 465.35 122.86 465.35 122.86 415.29 124.06 415.29"/><polygon class="cls-5" points="169.78 415.85 169.78 413.31 160.84 413.31 160.84 415.85 162.04 415.85 162.04 465.9 160.84 465.9 160.84 468.44 169.78 468.44 169.78 465.9 168.58 465.9 168.58 415.85 169.78 415.85"/><rect class="cls-2" x="24.62" y="411.44" width="143.83" height="1.87"/><rect class="cls-5" x="24.62" y="406.26" width="143.83" height="5.18"/><ellipse class="cls-2" cx="39.46" cy="418.81" rx="2.74" ry="2.2"/><ellipse class="cls-2" cx="62.56" cy="418.81" rx="2.74" ry="2.2"/><ellipse class="cls-2" cx="82.44" cy="418.81" rx="2.74" ry="2.2"/><ellipse class="cls-2" cx="111.02" cy="418.81" rx="2.74" ry="2.2"/><ellipse class="cls-2" cx="130.9" cy="418.81" rx="2.74" ry="2.2"/><ellipse class="cls-2" cx="154" cy="418.81" rx="2.74" ry="2.2"/><polygon class="cls-2" points="160.84 382.38 32.62 382.38 18.34 401.97 173.65 401.97 160.84 382.38"/><polygon class="cls-3" points="125.62 166.34 107.47 166.34 97.86 166.34 93.6 166.34 81.32 166.34 65.84 166.34 63.17 393.7 81.32 393.7 93.6 393.7 97.86 393.7 107.47 393.7 128.29 393.7 125.62 166.34"/><polygon class="cls-6" points="18.34 401.97 24.61 406.26 168.45 406.26 173.65 401.97 18.34 401.97"/><circle class="cls-7" cx="95.73" cy="195.52" r="15.2"/><rect class="cls-6" x="64.91" y="158.05" width="60.8" height="8.29"/><polygon class="cls-8" points="95.03 60.04 70.43 60.04 82.73 30.02 95.03 0 107.33 30.02 119.63 60.04 95.03 60.04"/><ellipse class="cls-9" cx="95.03" cy="60.48" rx="24.6" ry="7.26"/><path class="cls-5" d="M95,55.6c-12,0-21.66,3.25-21.66,7.26V67.3c0,4,9.7,7.26,21.66,7.26s21.65-3.25,21.65-7.26V62.86C116.68,58.85,107,55.6,95,55.6Z"/><ellipse class="cls-10" cx="95.03" cy="67.52" rx="21.66" ry="7.04"/><rect class="cls-5" x="77.89" y="60.04" width="4.11" height="37.93"/><rect class="cls-5" x="73.37" y="62.76" width="3.45" height="38.61"/><rect class="cls-5" x="87.02" y="59.19" width="4.11" height="36.61"/><rect class="cls-5" x="97.38" y="60.04" width="4.11" height="36.27"/><rect class="cls-5" x="107.96" y="60.48" width="4.11" height="38.16"/><rect class="cls-5" x="114.63" y="63.56" width="2.05" height="37.02"/><path class="cls-3" d="M95,94.56c-12,0-21.66,2.73-21.66,6.09v18.73h43.31V100.65C116.68,97.29,107,94.56,95,94.56Z"/><rect class="cls-6" x="64.91" y="117.11" width="60.8" height="6.4"/><rect class="cls-3" x="68.49" y="123.5" width="53.64" height="13.55"/><polygon class="cls-5" points="72.07 125.47 72.07 123.5 64.91 123.5 64.91 125.47 65.87 125.47 65.87 164.37 64.91 164.37 64.91 166.34 72.07 166.34 72.07 164.37 71.11 164.37 71.11 125.47 72.07 125.47"/><polygon class="cls-5" points="86.74 125.47 86.74 123.5 79.58 123.5 79.58 125.47 80.54 125.47 80.54 164.37 79.58 164.37 79.58 166.34 86.74 166.34 86.74 164.37 85.78 164.37 85.78 125.47 86.74 125.47"/><polygon class="cls-5" points="111.04 125.47 111.04 123.5 103.88 123.5 103.88 125.47 104.84 125.47 104.84 164.37 103.88 164.37 103.88 166.34 111.04 166.34 111.04 164.37 110.08 164.37 110.08 125.47 111.04 125.47"/><polygon class="cls-5" points="125.71 125.47 125.71 123.5 118.55 123.5 118.55 125.47 119.51 125.47 119.51 164.37 118.55 164.37 118.55 166.34 125.71 166.34 125.71 164.37 124.75 164.37 124.75 125.47 125.71 125.47"/><rect class="cls-2" x="73.74" y="126.51" width="4.18" height="5.53"/><rect class="cls-2" x="112.7" y="126.51" width="4.18" height="5.53"/><path class="cls-2" d="M96.44,126.88v-.78h.33v-.7H93.85v.7h.33v.78c-4.73.37-8.4,3-8.4,6.2v25.38h19.06V133.08C104.84,129.88,101.17,127.25,96.44,126.88Z"/><path class="cls-4" d="M95.31,128.66c-4,0-7.3,2.63-7.3,5.88v23.92h14.6V134.54C102.61,131.29,99.34,128.66,95.31,128.66Z"/><ellipse class="cls-2" cx="88.96" cy="126.21" rx="1.5" ry="1.21"/><ellipse class="cls-2" cx="101.66" cy="126.21" rx="1.5" ry="1.21"/><rect class="cls-2" x="71.11" y="134.47" width="9.43" height="23.58"/><rect class="cls-4" x="72.86" y="135.97" width="5.93" height="22.08"/><rect class="cls-2" x="110.08" y="134.47" width="9.43" height="23.58"/><rect class="cls-4" x="111.83" y="135.97" width="5.93" height="22.08"/><rect class="cls-6" x="118.55" y="105.57" width="4.32" height="11.54"/><ellipse class="cls-6" cx="120.82" cy="103.33" rx="1.31" ry="3.64"/><rect class="cls-6" x="66.33" y="105.57" width="4.32" height="11.54"/><ellipse class="cls-6" cx="68.6" cy="103.33" rx="1.31" ry="3.64"/></g></g></svg>