<svg xmlns="http://www.w3.org/2000/svg" viewBox="0 0 110.3 86.11"><defs><style>.cls-1{fill:#fff;}.cls-2{fill:#090909;}</style></defs><g id="Layer_2" data-name="Layer 2"><g id="Layer_1-2" data-name="Layer 1"><path class="cls-1" d="M92.38,54.82c-2-4.93.13-23.68.13-23.68L98,37l11.58-11.59c-.12-2.17-12.09-10.87-12.09-10.87s3.59-5.08,3.13-6.6-15.1-6.52-15.1-6.52L82,7.66S66.6,4.84,59.11,4.33,38,7,38,7L31.85,1.1,16.36,8l3.07,6.4C4.52,21.32,1.94,33,1.17,45.86S19.43,71.61,19.43,71.61L16.56,78.3c.58,1.53,15,6.59,15,6.59L35,78.43s10.81,2.24,19.8,3.26,24.54-2.43,24.54-2.43L85,85.41c3.45-.13,15.35-7.3,15.35-7.3l-2.81-6.5c4.41-2,12-10.84,12-10.84L97.89,49.19ZM24.5,54.61s-6.92-2.28-6.83-10.77a14.09,14.09,0,0,1,6.83-12C26.31,34.63,24.5,54.61,24.5,54.61Zm16.07,7.57c1.37-3.28,1.64-23.72,1.64-23.72,2.19.73,23.18,25.91,23.18,25.91C57.08,66.29,40.57,62.18,40.57,62.18Zm33.94-14L51.24,22.35C57.36,19.21,76.43,24,76.43,24,75.14,25,74.51,48.22,74.51,48.22Z"/><g id="TJSUBF.tif"><path class="cls-2" d="M32.28,0a3.13,3.13,0,0,1,1.46,1.05c1.35,1.55,2.73,3.08,4.08,4.63a.61.61,0,0,0,.7.21A83.71,83.71,0,0,1,59.91,3.52a82.75,82.75,0,0,1,20.87,3c.65.18.63.17,1-.43.81-1.54,1.61-3.09,2.45-4.61a1.89,1.89,0,0,1,2.56-1,74.52,74.52,0,0,1,13.54,6.1A1.91,1.91,0,0,1,101,9.43c-.88,1.55-1.74,3.11-2.61,4.67,1,.67,1.89,1.26,2.77,1.89a45.38,45.38,0,0,1,8.43,7.83,1.94,1.94,0,0,1-.14,3.05q-5,5.05-10.09,10.09c-1.16,1.16-2.35,1-3.31-.35-.78-1.07-1.67-2-2.51-3.07a3.57,3.57,0,0,0-.4-.37c-.88,2.19-.91,16.66,0,19.9a3,3,0,0,0,.36-.32c.88-1,1.8-2.07,2.6-3.18.94-1.28,2.14-1.45,3.26-.34l10.19,10.18a1.91,1.91,0,0,1,.13,2.92A46,46,0,0,1,99,71.74l-.41.26s0,0-.11.17c.84,1.51,1.69,3.08,2.58,4.63a1.87,1.87,0,0,1-.71,2.81,70,70,0,0,1-14.21,6.32,2.4,2.4,0,0,1-2.85-.73c-1.29-1.6-2.72-3.08-4.08-4.63a.62.62,0,0,0-.72-.23,84.41,84.41,0,0,1-24.17,2.27,80.36,80.36,0,0,1-18.23-2.93c-.39-.11-.55,0-.74.34-.82,1.6-1.66,3.2-2.52,4.78a1.9,1.9,0,0,1-2.53,1,74.14,74.14,0,0,1-13.54-6.1A1.91,1.91,0,0,1,16,76.78c.8-1.41,1.56-2.85,2.33-4.27a3.7,3.7,0,0,0,.19-.42c-1.25-.89-2.5-1.73-3.7-2.64a39.85,39.85,0,0,1-11-12.23A28.31,28.31,0,0,1,0,42.8,28.6,28.6,0,0,1,4.39,28,42.16,42.16,0,0,1,17.08,15.12l1.47-1c-.66-1.23-1.3-2.45-2-3.66-.2-.38-.44-.74-.66-1.11a1.87,1.87,0,0,1,.68-2.73A73.87,73.87,0,0,1,30.05.55L31.65,0ZM96,71.38A45.79,45.79,0,0,0,108.38,61L97.8,50.39a23.11,23.11,0,0,1-6,6.21,79.36,79.36,0,0,1,0-27,23,23,0,0,1,6,6.22l10.6-10.6A45.68,45.68,0,0,0,96,14.85l3.43-6.6A71.61,71.61,0,0,0,85.81,2.12c-1.08,2.15-2.14,4.26-3.18,6.38-.14.29-.26.38-.6.28A72.89,72.89,0,0,0,68.58,6c-2.86-.29-5.73-.53-8.59-.6-2.67-.06-5.34.08-8,.25a64.5,64.5,0,0,0-6.51.74C43,6.81,40.45,7.4,38,8a.72.72,0,0,1-.8-.25C35.53,5.85,33.89,4,32.26,2.17a.53.53,0,0,0-.67-.2A72.69,72.69,0,0,0,17.88,8l-.35.22,3.41,6.58-.74.46a44.57,44.57,0,0,0-11.62,10A28.75,28.75,0,0,0,2,40.24a25,25,0,0,0,.32,7.86,28.63,28.63,0,0,0,4.84,11A42.28,42.28,0,0,0,18.4,69.77c.8.53,1.63,1,2.54,1.63L17.53,78c2.41,1.67,11.74,5.84,13.58,6.07a3.79,3.79,0,0,0,.2-.34c1-2,2.06-4,3.07-6,.13-.25.22-.35.54-.26a76,76,0,0,0,15.08,3c2.42.21,4.85.37,7.27.42,2.17,0,4.35,0,6.52-.17A65.54,65.54,0,0,0,70.36,80c3-.48,5.88-1.14,8.81-1.75a.52.52,0,0,1,.6.2c1.64,1.85,3.29,3.7,4.92,5.56a.64.64,0,0,0,.79.21,73.27,73.27,0,0,0,13.67-6.07l.31-.2C98.31,75.75,97.19,73.58,96,71.38Z"/><path class="cls-2" d="M39.27,63.14A90.14,90.14,0,0,0,41.2,35.22l.11,0,26.61,30A72.63,72.63,0,0,1,39.27,63.14Zm4.09-22.88c0,.28,0,.42,0,.56a91.77,91.77,0,0,1-1.84,20.65c-.06.3,0,.38.31.45A71.45,71.45,0,0,0,51,63.5a72.69,72.69,0,0,0,11.52.26c.5,0,1-.07,1.6-.12Z"/><path class="cls-2" d="M49.07,21.1a72.83,72.83,0,0,1,28.65,2A90.16,90.16,0,0,0,75.79,51l-.11,0C66.84,41.09,58,31.14,49.07,21.1Zm3.78,1.47L73.54,45.86l.11,0A91.47,91.47,0,0,1,75.53,24.4,71.63,71.63,0,0,0,52.85,22.57Z"/><path class="cls-2" d="M25.21,56.62c-3.9-3-7-6.36-8-11.29A12.27,12.27,0,0,1,18,38.25c1.48-3.63,4.1-6.29,7.24-8.64A77.94,77.94,0,0,1,26.37,43.2,78.06,78.06,0,0,1,25.21,56.62Zm-1.37-3.57c.89-2.84.87-17.73,0-19.84C17.4,38.94,17,46.84,23.84,53.05Z"/></g></g></g></svg>