<svg xmlns="http://www.w3.org/2000/svg" viewBox="0 0 428.44 232.67"><defs><style>.cls-1{fill:#091020;}.cls-2{fill:#d0cbc8;}.cls-3{fill:#ccc8c7;}.cls-4{fill:none;stroke:#bcbbbb;stroke-width:2.2px;}.cls-4,.cls-5{stroke-miterlimit:10;}.cls-5{fill:#817d7e;stroke:#454449;stroke-width:0.73px;}.cls-6{fill:#aaa7a5;}.cls-7{fill:#939292;}</style></defs><g id="Layer_2" data-name="Layer 2"><g id="Layer_1-2" data-name="Layer 1"><rect class="cls-1" x="12.3" y="150.81" width="72.87" height="25.6" transform="translate(88.33 -2.45) rotate(30)"/><rect class="cls-1" x="89.39" y="181.43" width="188.79" height="28.55" transform="translate(20.16 -17.14) rotate(5.65)"/><rect class="cls-1" x="274.7" y="175.04" width="113.52" height="28.55" transform="matrix(0.97, -0.25, 0.25, 0.97, -36.87, 89.12)"/><polygon class="cls-2" points="348.14 17.49 160.32 0 230.31 17.8 229.03 18.17 160.32 0 38.23 34.98 0 116.04 79.15 165.9 273.01 186.34 395.09 151.36 427.29 67.34 348.14 17.49"/><polygon class="cls-3" points="305.27 67.63 192.33 99.89 116.63 52.04 229.56 19.78 305.27 67.63"/><polyline class="cls-4" points="194.23 99.89 212.84 50.32 121 53.91"/><polyline class="cls-4" points="232.08 20.95 212.84 50.32 305.3 66.94"/><polygon class="cls-5" points="381.01 143.26 268.07 175.53 192.37 99.2 305.3 66.94 381.01 143.26"/><polygon class="cls-5" points="232.08 21.64 119.14 53.91 50.88 35.91 163.82 3.64 232.08 21.64"/><polygon class="cls-5" points="194.23 99.89 88.74 156.67 15.51 110.68 121 53.91 194.23 99.89"/><polygon class="cls-5" points="410.79 65.76 305.3 66.94 232.08 20.95 337.57 19.78 410.79 65.76"/><polygon class="cls-5" points="194.23 99.89 88.74 156.67 268.07 175.53 194.23 99.89"/><polygon class="cls-5" points="305.3 66.94 410.79 65.76 381.01 143.26 305.3 66.94"/><polygon class="cls-5" points="232.08 20.95 337.57 19.78 163.82 3.64 232.08 20.95"/><polygon class="cls-5" points="121 53.91 50.88 35.91 15.51 110.68 121 53.91"/><polygon class="cls-6" points="0 166.21 0 115.99 79.02 166.01 79.02 211.21 65.81 203.64 65.81 175.23 13.82 146.39 13.17 174.23 0 166.21"/><polygon class="cls-6" points="272.93 206.22 79.02 185.9 79.02 166.01 272.93 186.34 272.93 206.22"/><polygon class="cls-7" points="272.93 206.22 272.93 232.67 265.49 226.05 265.49 205.51 272.93 206.22"/><polyline class="cls-7" points="367.91 175.53 367.91 201.83 376.18 207.87 376.73 174.77"/><polyline class="cls-6" points="272.93 186.34 395.49 151.05 393.14 201.83 376.18 207.87 376.73 174.77 291.46 195.46 291.46 224.41 272.93 232.67 272.93 228.81"/><polygon class="cls-7" points="79.02 211.21 90.95 207.41 90.95 187.04 79.02 185.9 79.02 211.21"/><polygon class="cls-7" points="395.09 151.36 427.29 67.34 428.44 89.69 400.69 158.08 399.26 189.66 393.14 201.83 395.09 151.36"/><path class="cls-6" d="M428.44,89.69c-.41,1,0,19.44,0,19.44L422,112.24v-6.75Z"/><polygon class="cls-7" points="13.17 174.23 24.49 169.53 24.49 152.31 13.82 146.39 13.17 174.23"/></g></g></svg>