<svg id="Layer_1" data-name="Layer 1" xmlns="http://www.w3.org/2000/svg" viewBox="0 0 1920 1080"><defs><style>.cls-1{fill:#99bc8a;}.cls-2{fill:none;stroke:#93b284;stroke-miterlimit:10;stroke-width:6px;}</style></defs><rect class="cls-1" x="-81.44" y="-92.06" width="2053.99" height="1211.21"/><path class="cls-2" d="M24.33,1244.23s356.89-664.09,384-673.13,27.1-12.42,61-46.3,98.3-58.29,133.27-99.39S682.77,240.91,702,218,922.21-41,951.57-72.66s207.81-213.46,281.22-251.86"/><path class="cls-2" d="M469.31,524.8s7.06,6.77-5.64,20.32S434,577.31,445.88,593.41s102.49,123.67,116,185.5,2.54,129.6-8.48,199.06-10.16,279.53-11.85,313.41-11.86,113.51,5.93,140.61,34.72,42.36,56.75,54.22,65.22,51.67,77.08,70.3,77.93,100,82.17,135.53,4.23,160.09,4.23,160.09"/><path class="cls-2" d="M-330.19,41.08s76.2,178.69,94.6,185.26S19.3,370.87,45.58,384,349.09,531.16,387.19,552.18s58.46,40.42,77.38,65.06"/><path class="cls-2" d="M-129.27,1070.3S458-4.9,480.61-41s85.83-119.72,237.17-135.53,334.31,42.92,393,40.66,171.67-12.19,205.55-43.36,49.7-56,49.7-56"/><path class="cls-2" d="M67.19-271.44S523.53-7.16,561.93,10.91,650,47.06,664.7,67.38,751,160.21,751,160.21"/><path class="cls-2" d="M611.28,413.49s54.25,42.41,66.82,59.35S707.62,518,718.91,518"/><path class="cls-2" d="M657.77,322.63s30.65,31.62,61.14,24.85,45.18-20.33,84.71-24.85,92.61-24.85,117.46-28.23,87.94-10.17,130.37,10.16S1104,337.31,1104,337.31s49.7-62.11,70-79.06,50.82-37.27,58.72-67.76,4.52-58.73-14.68-84.71S1118.72-46.69,1109.69-61.37s-33.11-52.57-28.41-76.54"/><path class="cls-2" d="M1104,337.31s-24.84,46.43-23.72,69.52,5.65,68.68,32.76,75.25,74.54,3.19,100.51,10,82.45,97.13,93.75,114.07,48.56,56.47,65.5,71.16,29.37,21,52,52.86,49.7,53.3,68.9,53.3,56.47-7.91,103.9-42.92,101.65-77.93,112.94-107.29,5.65-63.25,5.65-63.25,117.46-14.68,151.34-9.6,146.83,16.38,177.32,16.38,65.51,9,65.51,9"/><path class="cls-2" d="M2149.88,451.38S2103.57,631,2072,689.69s-241.7,323-285.74,362.54-101.65,98.26-101.65,98.26"/><path class="cls-2" d="M1911.42,906.19s4.67-26.42-57.45-6.82-112.94,46.7-127.62,62.51-30.5,40.66-52,53.08-96.57,58.73-113.79,71.15-85,52-125.64,64.38-170.54,57.6-202.17,57.6-137.93-12.43-161-12.43S977.46,1146,960,1140.32s-51.35-32.75-55.86-44c0,0,23.71-11.3,41.78-26s14.69-42.92,7.91-61S915.43,902,915.43,902s-272.19,72.84-362,76S433.17,853.45,410.58,816.18,328.14,651.29,296.51,640s-147.67-78.29-147.67-78.29"/><path class="cls-2" d="M546,1080s-54.08,19-76.65,12.89-67.76-36.14-93.74-49.7S4.05,826.37,4.05,826.37"/><line class="cls-2" x1="60.47" y1="935.9" x2="141.79" y2="794.72"/><line class="cls-2" x1="335.16" y1="1020.19" x2="224.23" y2="1165.17"/><polyline class="cls-2" points="409.89 1062.79 478.04 941.83 547.95 1037.46"/><line class="cls-2" x1="304.34" y1="1002.31" x2="410.58" y2="816.18"/><path class="cls-2" d="M910-167.64s-7,31.73-32.94,46.41S716.94-.38,704.23,5.55s-24.56,17.79-53.36,0S607.67-19,607.67-19L583.91,20.87"/><line class="cls-2" x1="712.82" x2="797.86" y2="105.26"/><path class="cls-2" d="M604.35,30s-65.3,120.59-61.06,130.25S590.73,186,590.73,186"/><path class="cls-2" d="M291.71,0s64.38,44.42,75.39,41.08,18.28-16.62,64.63,5.26,128.06,70.41,128.06,70.41"/><path class="cls-2" d="M1716.18,570c-44.29,4.92-92.89,2.26-145.41-9.6S1437.78,535,1394.58,535s-82.16,15.25-120.61,21.41-92.85,49.74-120,77.7-74.54,135.52-108.42,173.64S915.43,902,915.43,902s-3.67-26.54-12.14-34.17-34.73-36.42-36.42-45.74-6.78-13.55,9.31-20.33,17.79-20.84,10.17-23.12-16.75-2.57-26.59,4.77-26.86,20.05-39.1,26-34.26,20.33-32.57,33.88,8.47,22.23,11.86,41.61,12.35,43.34,12.35,43.34"/><path class="cls-2" d="M1502,546.89s-10.85,21.11,3.55,34.66,56.75,30.49,60.14,44.05-6.78,65.22,0,81.31,31.9,33.6,31.9,33.6"/><path class="cls-2" d="M1738.73,951.58s-22.27-17.66-7-39.68,38.12-59.29,38.12-59.29,11.86,5.08,42.35-13.56,55.91-28.8,61-43.2,18.64-36.42,10.16-50.82-32.18-26.54-32.18-26.54"/><path class="cls-2" d="M1769.83,852.61S1758,836.51,1758,812s-8.47-43.2-3.39-55.91S1780,725.55,1780,725.55"/><path class="cls-2" d="M1761.54,835s15.91-7,18.45-17.15-5.08-55.06,3.39-55.91,22.87,3.39,29.65,14.4,9.32,19.59,0,22.08-33.27-6-33.27-6"/><path class="cls-2" d="M1193,994.06s24.57,36.43,26.26,48.29,9.32,28.71-3.39,37.65-32.18,14.86-47.43,18.25-35.58,18.64-47.44,16.94-28-50-36.42-50-16.94,26.26-18.64,45.74-4.23,26.26-15.24,34.73-28.8,39-36.43,52.52-34.81,39.53-54.25,46"/><line class="cls-2" x1="-291.35" y1="822.48" x2="464.57" y2="-559.01"/><line class="cls-2" x1="-395.9" y1="786.37" x2="360.02" y2="-595.13"/><path class="cls-2" d="M513,683.12s56.09-50.79,110.58-41,82.2,56.29,82.2,56.29-7.15,31.27,5.36,76.83,11.93,68.79,7.75,89.34-5.65,30.38,0,50.93,27.09,93.81,30.67,119.72,24.12,92.91,26.8,109.89,31.27,127.76,31.27,127.76l-74.93,22.28"/><path class="cls-2" d="M1084.56,1065.22c10.46-12.11,20.33-46.59,22.87-71.16s2.54-52.51-5.08-67.76-38.12-22-50.9-30.49-31.27-64.58-31.27-64.58-69.46-76.88-72-95.52,3.39-39.8,0-52.93-14.4-51.26-15.24-58-15.25-7.63-26.26-7.63-30.5,5.09-30.5,5.09l-5.69-29.65"/><path class="cls-2" d="M1372.84,677.27s-51.95,55.9-63,76.23-55.06,94-67.77,114.35-42.35,74.54-64.37,92.33-32.19,36.43-70.31,33.88"/><path class="cls-2" d="M1242.11,867.85l-77.93-53.36,58.88-104.69s28.37,17.44,40.23,15.75,31.34-19.66,26.26-36.09"/><line class="cls-2" x1="1137.78" y1="655.75" x2="1223.06" y2="709.8"/><path class="cls-2" d="M838.07,618.82l38.11,3.39s11.86,33,0,43.2-38.11,24.05-38.11,24.05"/><polyline class="cls-2" points="715.54 884.9 677.97 891.57 653.41 828.89"/><path class="cls-2" d="M952.71,1062.79s19.19,11.75,31.9,2.43,36.42-46.59,33-71.16-27.92-83-27.92-83"/><path class="cls-2" d="M1403.73,1160.48s9.15-59.69,0-75.78-16.77-19.48-16.77-19.48"/><path class="cls-2" d="M1461.34,769.35s-100.92,84.88-112.22,115.55-19.2,49.87-19.2,49.87,1.13,36.14,42.92,48.57,64.38,38.4,82.45,24.84,21.13-57.1,6-79.94-32-28.87-32-28.87"/><path class="cls-2" d="M1647.31,702.14s55.32,62.71,55.32,76.52,10.16,40.58-4.52,57.12,10.17,32-2.26,49.12-58.73-5.87-58.73-5.87"/><path class="cls-2" d="M1684.56,747.62s37.27-80.52,53.08-83.91,77.93-14.78,111.81-8,64.3,12.61,70.55-2.14-2.78-20.39-22-21.52-148-10.17-187.49,1.13"/><path class="cls-2" d="M1227.28,204.6s86.83,40.67,91.91,66.08,0,52.52,0,52.52"/><polyline class="cls-2" points="1232.8 190.49 1145.83 113.69 1117.6 143.06 1066.77 95.62"/><line class="cls-2" x1="92.29" y1="406.83" x2="48.69" y2="495.27"/><path class="cls-2" d="M1321.45,226.63s46.87-72.85,36.71-96.56-28.49-40.66-17.63-54.21,47-17,32.31-49.13-132.7-176.64-132.7-176.64"/><path class="cls-2" d="M1340.53,75.86s-8.77,44,35.77,47.43,63.18-16.38,110.61,19.76,85.27,85.28,150.21,75.11,85.41-33.32,115.84-27.67,49.34,3.95,66.14-18.07,35.43-47.92,25.27-67.16-39-75.15-64.38-75.15h-53.62"/><polyline class="cls-2" points="1839.16 143.06 1932.46 248.66 2029.03 263.9"/><path class="cls-2" d="M1780,193.2s15.58,45.29,10.33,77.48S1780,380.8,1780,399.43"/><path class="cls-2" d="M1637.12,218.16s-19.76,154.17-9.6,206.68"/><path class="cls-2" d="M2110.35,424.84s-44,61-81.32,66.07-83-27.1-127.06-18.63-94.8,25.41-135.49,27.1-122.75,1.7-141.86-8.47-98.74-100-98.74-132.14-13.56-47.43-27.8-62.46-45-62.9-48.44-105.82S1471,132.33,1471,132.33"/><path class="cls-2" d="M2068.76,469.8s-46.51-87.31-77-87.31-94.87-66.22-94.87-66.22"/></svg>