<svg xmlns="http://www.w3.org/2000/svg" viewBox="0 0 241.39 277.74"><defs><style>.cls-1{fill:#faf8df;}.cls-2{fill:#ceccbc;}.cls-3{fill:#83d1fc;}.cls-4{fill:#666;}.cls-5{fill:#878787;}.cls-6{fill:#cecece;}.cls-7{fill:#bcbcbc;}.cls-8{fill:#eeede9;}.cls-9{fill:#443d5e;}</style></defs><g id="Layer_2" data-name="Layer 2"><g id="Layer_1-2" data-name="Layer 1"><polygon class="cls-1" points="16.72 76.39 24.82 78.77 23.99 71.2 16.72 76.39"/><path class="cls-2" d="M20.15,72.12s-2,13.22,14.19,13.72,174.32,0,174.32,0,13.07-1.2,13-13.72S83.57,60.56,83.57,60.56Z"/><path class="cls-1" d="M224.67,69.83l-2.18-1.37C210.38,32.8,169.4,6.56,120.69,6.56S31.07,32.76,18.93,68.38c-1.42.92-2.21,1.45-2.21,1.45v6.56C25.08,69.9,68.44,65,120.69,65s95.62,5,104,11.44Z"/><path class="cls-3" d="M120.69,58.4c52.26,0,95.62,4.94,104,11.43C216.31,30.2,173,0,120.69,0s-95.61,30.2-104,69.83C25.08,63.34,68.44,58.4,120.69,58.4Z"/><path class="cls-4" d="M225.2,253.39c-20.88-4.85-59.86-8.11-104.51-8.11s-83.62,3.26-104.5,8.11H0v8.12c0,9,54,16.23,120.69,16.23s120.7-7.27,120.7-16.23v-8.12Z"/><ellipse class="cls-5" cx="120.69" cy="253.39" rx="120.69" ry="16.23"/><path class="cls-4" d="M213.41,244c-18.48-4.1-53-6.85-92.53-6.85s-74,2.75-92.53,6.85H14v6.87c0,7.57,47.84,13.72,106.86,13.72s106.87-6.15,106.87-13.72V244Z"/><ellipse class="cls-5" cx="120.88" cy="244.01" rx="106.86" ry="13.72"/><rect class="cls-6" x="29.63" y="85.84" width="14.77" height="158.17"/><rect class="cls-6" x="26.73" y="237.24" width="17.67" height="5.43" transform="translate(71.13 479.9) rotate(180)"/><rect class="cls-7" x="25.5" y="241.03" width="20.13" height="5.43" transform="translate(71.13 487.49) rotate(180)"/><rect class="cls-6" x="71.11" y="95.47" width="14.77" height="143.33"/><rect class="cls-6" x="131.05" y="95.47" width="14.77" height="143.33"/><rect class="cls-6" x="185.55" y="88.95" width="14.77" height="149.85"/><rect class="cls-6" x="184.1" y="234.52" width="17.67" height="5.43" transform="translate(385.87 474.47) rotate(180)"/><rect class="cls-7" x="182.87" y="238.32" width="20.13" height="5.43" transform="translate(385.87 482.06) rotate(180)"/><ellipse class="cls-5" cx="120.69" cy="85.84" rx="91.13" ry="13.72"/><rect class="cls-8" x="91.53" y="87.35" width="14.77" height="156.66"/><rect class="cls-8" x="162.48" y="87.98" width="14.77" height="156.02"/><rect class="cls-8" x="198.6" y="94.15" width="14.77" height="149.85"/><rect class="cls-8" x="37.01" y="91.68" width="14.77" height="152.33"/><rect class="cls-6" x="90.08" y="82.56" width="17.67" height="5.43"/><rect class="cls-7" x="88.85" y="78.77" width="20.13" height="5.43"/><rect class="cls-6" x="161.03" y="83.37" width="17.67" height="5.43"/><rect class="cls-7" x="159.8" y="79.58" width="20.13" height="5.43"/><rect class="cls-6" x="197.15" y="89.07" width="17.67" height="5.43"/><rect class="cls-7" x="195.92" y="85.27" width="20.13" height="5.43"/><rect class="cls-6" x="35.56" y="87.17" width="17.67" height="5.43"/><rect class="cls-7" x="34.33" y="83.37" width="20.13" height="5.43"/><rect class="cls-6" x="35.56" y="239.4" width="17.67" height="5.43" transform="translate(88.8 484.22) rotate(180)"/><rect class="cls-7" x="34.33" y="243.19" width="20.13" height="5.43" transform="translate(88.8 491.81) rotate(180)"/><rect class="cls-6" x="69.66" y="232.55" width="17.67" height="5.43" transform="translate(156.99 470.52) rotate(180)"/><rect class="cls-7" x="68.43" y="236.34" width="20.13" height="5.43" transform="translate(156.99 478.11) rotate(180)"/><rect class="cls-6" x="129.6" y="230.65" width="17.67" height="5.43" transform="translate(276.88 466.73) rotate(180)"/><rect class="cls-7" x="128.37" y="234.44" width="20.13" height="5.43" transform="translate(276.88 474.31) rotate(180)"/><polygon class="cls-9" points="110.85 196.13 110.85 201.84 113.7 201.84 113.7 242.02 133.9 242.02 133.9 201.84 137.41 201.84 137.41 196.13 110.85 196.13"/><rect class="cls-6" x="90.08" y="240.22" width="17.67" height="5.43" transform="translate(197.82 485.86) rotate(180)"/><rect class="cls-7" x="88.85" y="244.01" width="20.13" height="5.43" transform="translate(197.82 493.44) rotate(180)"/><rect class="cls-9" x="112.47" y="239.13" width="23.32" height="5.43" transform="translate(248.26 483.69) rotate(180)"/><rect class="cls-9" x="110.85" y="242.93" width="26.56" height="5.43" transform="translate(248.26 491.28) rotate(180)"/><rect class="cls-6" x="161.03" y="241.03" width="17.67" height="5.43" transform="translate(339.72 487.49) rotate(180)"/><rect class="cls-7" x="159.8" y="244.82" width="20.13" height="5.43" transform="translate(339.72 495.08) rotate(180)"/><rect class="cls-6" x="197.15" y="239.13" width="17.67" height="5.43" transform="translate(411.96 483.69) rotate(180)"/><rect class="cls-7" x="195.92" y="242.93" width="20.13" height="5.43" transform="translate(411.96 491.28) rotate(180)"/></g></g></svg>