<svg xmlns="http://www.w3.org/2000/svg" xmlns:xlink="http://www.w3.org/1999/xlink" viewBox="0 0 224.97 388.7"><defs><style>.cls-1,.cls-10,.cls-11,.cls-9{fill:none;}.cls-2{fill:#87d7fc;}.cls-3{fill:#305972;}.cls-4{fill:#45799e;}.cls-5{fill:#5d95b2;}.cls-6{clip-path:url(#clip-path);}.cls-7{fill:#fff;}.cls-8{fill:#090909;}.cls-10,.cls-11,.cls-9{stroke:#5d95b2;stroke-miterlimit:10;}.cls-9{stroke-width:1.22px;}.cls-10{stroke-width:1.03px;}.cls-11{stroke-width:0.8px;}</style><clipPath id="clip-path"><path class="cls-1" d="M216.86,83.92s-10.66-8-104.37-8c-89.66,0-105.79,8-105.79,8s-1.8,21.55,20.07,25.79,150.86,4.25,172.41,0S216.86,83.92,216.86,83.92Z"/></clipPath></defs><g id="Layer_2" data-name="Layer 2"><g id="Layer_1-2" data-name="Layer 1"><path class="cls-2" d="M6.86,77.71S3.92,32.33,23.18,23.84,64.33,0,111,0s74.45,10.12,86.85,18.61,20.9,18.29,18.62,57.14l-5.88,7.19L11.43,86.53Z"/><polygon class="cls-3" points="43.59 106.33 43.59 375.71 33.47 375.71 33.47 105.06 43.59 106.33"/><polygon class="cls-3" points="196.57 106.33 196.57 375.71 186.44 375.71 186.44 105.06 196.57 106.33"/><polygon class="cls-3" points="78.69 106.33 78.69 375.71 68.57 375.71 68.57 105.06 78.69 106.33"/><rect class="cls-3" x="103.67" y="105.06" width="22.04" height="268.41"/><polygon class="cls-3" points="171.43 106.33 171.43 375.71 161.3 375.71 161.3 105.06 171.43 106.33"/><path class="cls-4" d="M225,75.92C225,69.33,174.61,64,112.49,64S0,69.33,0,75.92v9.14H40.33c19.53,1.73,44.69,2.77,72.16,2.77s52.62-1,72.15-2.77H225Z"/><path class="cls-2" d="M218.49,84.9H225V78.29c0-6.58-50.36-11.92-112.48-11.92S0,71.71,0,78.29v4.2H12.55v4.94H40.33c19.53,1.73,44.69,2.78,72.16,2.78s52.62-1,72.15-2.78h33.85Z"/><path class="cls-4" d="M213.22,85.06H225V82.49c0-6.58-50.36-11.92-112.48-11.92S0,75.91,0,82.49v2.57H11.47v6.57H40.33c19.53,1.73,44.69,2.78,72.16,2.78s52.62-1,72.15-2.78h28.58Z"/><ellipse class="cls-3" cx="112.49" cy="85.06" rx="112.49" ry="11.92"/><path class="cls-5" d="M216.86,83.92s-10.66-8-104.37-8c-89.66,0-105.79,8-105.79,8s-1.8,21.55,20.07,25.79,150.86,4.25,172.41,0S216.86,83.92,216.86,83.92Z"/><g class="cls-6"><ellipse class="cls-3" cx="112.49" cy="104.34" rx="89.13" ry="15.55"/></g><polygon class="cls-5" points="61.71 106.41 61.71 385.48 51.59 385.48 51.59 101.96 61.71 106.41"/><polygon class="cls-5" points="108.73 106.39 108.73 388.69 98.61 388.69 98.61 105.06 108.73 106.39"/><polygon class="cls-5" points="159.67 101.96 159.67 385.48 149.55 385.48 149.55 105.09 159.67 101.96"/><polygon class="cls-5" points="192.97 97.85 192.97 382.66 182.85 382.66 182.85 100.7 192.97 97.85"/><polygon class="cls-5" points="38.53 102.02 38.53 382.66 28.41 382.66 28.41 97.85 38.53 102.02"/><path class="cls-7" d="M112.09,44.67c-.86-2.13,0-10.22,0-10.22L114.49,37l5-5c-.06-.94-5.22-4.7-5.22-4.7s1.55-2.19,1.35-2.84-6.51-2.82-6.51-2.82l-1.52,2.71S101,23.1,97.73,22.88,88.62,24,88.62,24L86,21.49l-6.68,3,1.33,2.76c-6.44,3-7.56,8-7.89,13.57s7.89,11.11,7.89,11.11L79.36,54.8c.26.66,6.47,2.85,6.47,2.85l1.49-2.79s4.66,1,8.54,1.41,10.59-1.05,10.59-1.05l2.46,2.65c1.49-.06,6.63-3.15,6.63-3.15l-1.22-2.81c1.91-.84,5.17-4.67,5.17-4.67l-5-5Zm-29.3-.09a4.7,4.7,0,0,1-3-4.65,6.09,6.09,0,0,1,3-5.2C83.57,36,82.79,44.58,82.79,44.58Zm6.94,3.27c.59-1.42.71-10.24.71-10.24.94.31,10,11.18,10,11.18C96.85,49.62,89.73,47.85,89.73,47.85Zm14.65-6-10-11.16c2.64-1.36,10.87.73,10.87.73C104.65,31.8,104.38,41.82,104.38,41.82Z"/><g id="TJSUBF.tif"><path class="cls-8" d="M86.15,21a1.36,1.36,0,0,1,.63.46c.58.67,1.18,1.32,1.76,2a.25.25,0,0,0,.3.09,36.7,36.7,0,0,1,18.24.26c.28.08.27.08.41-.18.35-.67.7-1.33,1.06-2a.81.81,0,0,1,1.1-.42,31.62,31.62,0,0,1,5.84,2.63.83.83,0,0,1,.33,1.23l-1.13,2c.43.29.82.54,1.2.81a19.45,19.45,0,0,1,3.64,3.38.84.84,0,0,1-.06,1.32L115.11,37a.84.84,0,0,1-1.43-.15c-.33-.46-.72-.89-1.08-1.33l-.17-.15c-.38.94-.39,7.18,0,8.58,0,0,.11-.08.15-.13.38-.46.78-.9,1.12-1.37a.84.84,0,0,1,1.41-.15l4.39,4.39a.81.81,0,0,1,.06,1.26A19.89,19.89,0,0,1,114.93,52l-.18.12s0,0,0,.07c.37.65.74,1.33,1.12,2a.82.82,0,0,1-.31,1.22,29.74,29.74,0,0,1-6.13,2.72,1,1,0,0,1-1.23-.31c-.56-.69-1.17-1.33-1.76-2a.27.27,0,0,0-.31-.1,36.27,36.27,0,0,1-10.43,1,34.93,34.93,0,0,1-7.87-1.26c-.17,0-.24,0-.32.14-.35.7-.71,1.38-1.09,2.07a.82.82,0,0,1-1.09.41,32.93,32.93,0,0,1-5.84-2.63.83.83,0,0,1-.33-1.24c.35-.61.67-1.23,1-1.85a1.42,1.42,0,0,0,.08-.18c-.54-.38-1.08-.74-1.6-1.14a17.3,17.3,0,0,1-4.73-5.27,12.18,12.18,0,0,1-1.65-6.23,12.4,12.4,0,0,1,1.89-6.37,18.2,18.2,0,0,1,5.48-5.57l.64-.42-.85-1.59c-.09-.16-.19-.32-.29-.48a.8.8,0,0,1,.3-1.17,31.55,31.55,0,0,1,5.8-2.63l.69-.24Zm27.52,30.8A19.69,19.69,0,0,0,119,47.34l-4.57-4.58a9.74,9.74,0,0,1-2.6,2.68,34.52,34.52,0,0,1,0-11.65,10,10,0,0,1,2.61,2.69L119,31.9a19.75,19.75,0,0,0-5.33-4.48l1.48-2.85a30.76,30.76,0,0,0-5.9-2.64l-1.37,2.75c-.06.13-.11.16-.26.12a30.28,30.28,0,0,0-5.81-1.2c-1.23-.13-2.47-.23-3.7-.26s-2.31,0-3.45.11a26.55,26.55,0,0,0-2.81.32c-1.09.18-2.17.44-3.25.67a.29.29,0,0,1-.35-.11L86.14,22a.22.22,0,0,0-.29-.09,31.93,31.93,0,0,0-5.92,2.62l-.15.1,1.48,2.84-.32.2a19.12,19.12,0,0,0-5,4.29,12.43,12.43,0,0,0-2.83,6.47,10.71,10.71,0,0,0,.14,3.39,12.22,12.22,0,0,0,2.09,4.75,18,18,0,0,0,4.84,4.6l1.1.7-1.47,2.83a29.09,29.09,0,0,0,5.86,2.62c0-.05.06-.1.08-.15l1.33-2.58c0-.11.09-.15.23-.11a33.5,33.5,0,0,0,6.51,1.29c1,.09,2.09.16,3.13.18s1.88,0,2.82-.07,1.9-.14,2.83-.29c1.28-.21,2.54-.49,3.81-.76a.24.24,0,0,1,.26.09l2.12,2.4a.27.27,0,0,0,.34.09,31.11,31.11,0,0,0,5.9-2.62l.13-.09Z"/><path class="cls-8" d="M89.17,48.26a39.08,39.08,0,0,0,.83-12l0,0,11.48,12.93A31.59,31.59,0,0,1,89.17,48.26Zm1.76-9.88v.25a39.2,39.2,0,0,1-.79,8.91c0,.13,0,.16.13.19a29.67,29.67,0,0,0,4,.68,30.54,30.54,0,0,0,5,.12l.69-.05Z"/><path class="cls-8" d="M93.39,30.12a31.45,31.45,0,0,1,12.37.85A38.52,38.52,0,0,0,104.93,43h-.05C101.06,38.75,97.25,34.45,93.39,30.12Zm1.64.63,8.93,10h0a40,40,0,0,1,.81-9.25A30.87,30.87,0,0,0,95,30.75Z"/><path class="cls-8" d="M83.1,45.45a8.05,8.05,0,0,1-3.46-4.88,5.32,5.32,0,0,1,.33-3,8.84,8.84,0,0,1,3.13-3.73,34.21,34.21,0,0,1,.5,5.87A33.38,33.38,0,0,1,83.1,45.45Zm-.59-1.54c.38-1.23.37-7.65,0-8.57C79.73,37.82,79.55,41.23,82.51,43.91Z"/></g><polyline class="cls-9" points="60.47 119.48 99.89 259.45 58.35 379.16"/><polyline class="cls-9" points="100.42 119.48 61 259.45 102.54 379.16"/><polyline class="cls-9" points="107.88 122.27 147.3 262.25 105.76 379.16"/><polyline class="cls-9" points="147.83 122.27 108.4 262.25 151.85 379.16"/><polyline class="cls-10" points="156.13 111.86 184.54 251.83 155.15 380.51"/><polyline class="cls-10" points="184.92 111.86 156.51 251.83 185.91 380.51"/><polyline class="cls-11" points="36.58 111.86 53.56 251.83 35.92 381.07"/><polyline class="cls-11" points="53.79 111.86 36.81 251.83 54.19 379.16"/></g></g></svg>